<?xml version="1.0" encoding="UTF-8" standalone="no"?>
<svg
   xmlns:dc="http://purl.org/dc/elements/1.1/"
   xmlns:cc="http://creativecommons.org/ns#"
   xmlns:rdf="http://www.w3.org/1999/02/22-rdf-syntax-ns#"
   xmlns:svg="http://www.w3.org/2000/svg"
   xmlns="http://www.w3.org/2000/svg"
   xmlns:sodipodi="http://sodipodi.sourceforge.net/DTD/sodipodi-0.dtd"
   xmlns:inkscape="http://www.inkscape.org/namespaces/inkscape"
   height="100"
   width="100"
   id="svg8"
   xml:space="preserve"
   enable-background="new 0 0 128 128"
   viewBox="0 0 100 100"
   y="0px"
   x="0px"
   version="1.1"
   sodipodi:docname="library.svg"
   inkscape:version="0.92.2 5c3e80d, 2017-08-06"><sodipodi:namedview
     pagecolor="#ffffff"
     bordercolor="#666666"
     borderopacity="1"
     objecttolerance="10"
     gridtolerance="10"
     guidetolerance="10"
     inkscape:pageopacity="0"
     inkscape:pageshadow="2"
     inkscape:window-width="1002"
     inkscape:window-height="643"
     id="namedview6"
     showgrid="false"
     inkscape:zoom="2.5781733"
     inkscape:cx="44.144952"
     inkscape:cy="27.876892"
     inkscape:window-x="332"
     inkscape:window-y="43"
     inkscape:window-maximized="0"
     inkscape:current-layer="svg8" /><metadata
     id="metadata14"><rdf:RDF><cc:Work
         rdf:about=""><dc:format>image/svg+xml</dc:format><dc:type
           rdf:resource="http://purl.org/dc/dcmitype/StillImage" /><dc:title /></cc:Work></rdf:RDF></metadata><defs
     id="defs12" /><path
     id="path2"
     d="m 26.123402,14.740234 v 7.1 h 47.377876 v -7.1 z m -7.874042,10.327272 2.19606,10.198687 h 18.201314 c 3.098183,-2.065456 6.841313,-3.227272 11.101313,-3.227272 4.26,0 8.003129,1.290912 11.101313,3.227272 h 18.201314 l 2.19606,-10.198687 z M 14.248047,38.36488 25.866231,85.740234 H 73.629863 L 85.248047,38.36488 Z m 35.5,6.968893 c 13.29636,0 22.332728,9.295549 20.654544,19.106461 -1.549088,8.52 -10.714544,14.457171 -20.654544,14.457171 -9.94,0 -19.105456,-5.937171 -20.654544,-14.457171 -1.807272,-9.810912 7.358184,-19.106461 20.654544,-19.106461 z"
     style="fill:#ffffff;fill-opacity:1;stroke-width:1.29090881"
     inkscape:connector-curvature="0"
     sodipodi:nodetypes="ccccccccscccccccccscscs" /><g
     aria-label="♫"
     transform="matrix(1.717388,0,0,1.717388,69.433507,50.376815)"
     style="font-style:normal;font-variant:normal;font-weight:600;font-stretch:normal;font-size:17.33333397px;line-height:125%;font-family:'Adobe Fan Heiti Std';-inkscape-font-specification:'Adobe Fan Heiti Std Semi-Bold';text-align:end;letter-spacing:0px;word-spacing:0px;text-anchor:end;fill:#ffffff;fill-opacity:1;stroke:none;stroke-width:1px;stroke-linecap:butt;stroke-linejoin:miter;stroke-opacity:1"
     id="flowRoot812"><path
       d="m -13.910157,1.6820873 6.7369799,-2.09895846 V 8.9607334 c 0.047936,1.1426166 -0.3772926,1.5439376 -1.1764324,2.1137666 -0.4231771,0.231337 -0.9027778,0.347005 -1.4388021,0.347005 -1.0897834,-0.07822 -2.0103964,-0.692032 -2.0227864,-1.6629734 0,-0.5642361 0.217231,-0.9332149 0.651693,-1.3394649 0.434461,-0.4118924 0.995876,-0.6178386 1.6842444,-0.6178386 0.2256945,0 0.4231771,0.019748 0.592448,0.059245 0.1749132,0.039497 0.4570313,0.1410592 0.8463542,0.3046875 V 2.037556 l -5.0358076,1.5657553 v 7.0755207 c 0.04373,1.157651 -0.381912,1.467638 -1.201823,2.0396 -0.440104,0.225694 -0.919705,0.338541 -1.438802,0.338541 -0.991474,-0.07796 -1.987695,-0.815514 -1.997396,-1.587704 0,-0.592448 0.21441,-0.914569 0.643229,-1.315176 0.428819,-0.4062502 0.990234,-0.6093753 1.684245,-0.6093753 0.440104,0 0.930989,0.1297743 1.472656,0.389323 z"
       id="path820"
       inkscape:connector-curvature="0"
       sodipodi:nodetypes="cccccccscccccccccscc"
       style="fill:#ffffff" /></g></svg>