<?xml version="1.0" encoding="UTF-8" standalone="no"?>
<!-- Generator: Adobe Illustrator 16.0.0, SVG Export Plug-In . SVG Version: 6.00 Build 0)  -->

<svg
   xmlns:dc="http://purl.org/dc/elements/1.1/"
   xmlns:cc="http://creativecommons.org/ns#"
   xmlns:rdf="http://www.w3.org/1999/02/22-rdf-syntax-ns#"
   xmlns:svg="http://www.w3.org/2000/svg"
   xmlns="http://www.w3.org/2000/svg"
   xmlns:sodipodi="http://sodipodi.sourceforge.net/DTD/sodipodi-0.dtd"
   xmlns:inkscape="http://www.inkscape.org/namespaces/inkscape"
   version="1.1"
   id="svg12"
   x="0px"
   y="0px"
   width="335.34px"
   height="308.115px"
   viewBox="0 0 335.34 308.115"
   enable-background="new 0 0 335.34 308.115"
   xml:space="preserve"
   sodipodi:docname="project_art.svg"
   inkscape:version="0.92.2 5c3e80d, 2017-08-06"><metadata
     id="metadata18"><rdf:RDF><cc:Work
         rdf:about=""><dc:format>image/svg+xml</dc:format><dc:type
           rdf:resource="http://purl.org/dc/dcmitype/StillImage" /><dc:title></dc:title></cc:Work></rdf:RDF></metadata><defs
     id="defs16" /><sodipodi:namedview
     pagecolor="#ffffff"
     bordercolor="#666666"
     borderopacity="1"
     objecttolerance="10"
     gridtolerance="10"
     guidetolerance="10"
     inkscape:pageopacity="0"
     inkscape:pageshadow="2"
     inkscape:window-width="1038"
     inkscape:window-height="502"
     id="namedview14"
     showgrid="false"
     inkscape:zoom="0.73289983"
     inkscape:cx="132.05506"
     inkscape:cy="154.0575"
     inkscape:window-x="314"
     inkscape:window-y="140"
     inkscape:window-maximized="0"
     inkscape:current-layer="svg12" /><g
     id="logo_x5F_layer"
     transform="matrix(1.4912908,0,0,1.4912908,-82.374719,-75.68705)"><g
       id="g9"><g
         id="logo_x5F_group_9_"><g
           id="g6"><path
             id="arc_x5F_small_9_"
             d="m 138.01,132.741 c 6.17,-9.809 17.066,-16.298 29.57,-16.298 12.528,0 23.444,6.517 29.609,16.358 l 4.237,-2.65 c -7.034,-11.252 -19.554,-18.711 -33.847,-18.708 -14.264,-0.002 -26.762,7.424 -33.803,18.639 z"
             inkscape:connector-curvature="0"
             style="fill:#f7f7ff" /><path
             id="arc_x5F_big_9_"
             d="m 218.48,151.107 c -1.48,-0.36 -5.021,-1.03 -5.021,-1.03 -0.72,-24.66 -21.05,-44.59 -45.88,-44.64 -24.84,0.05 -45.18,19.99 -45.88,44.67 0,0 -3.479,0.68 -5.021,1.06 0.101,-27.94 22.93,-50.72 50.9,-50.73 27.952,0.011 50.762,22.751 50.902,50.67 z"
             inkscape:connector-curvature="0"
             style="fill:#f7f7ff" /><path
             id="left_x5F_brace_9_"
             d="m 136.24,206.298 -5.84,0.92 c -1.91,0.3 -3.61,0.46 -5.15,0.46 -2.85,-0.01 -5.199,-0.49 -6.92,-2.061 -1.88,-1.93 -2.59,-4.92 -3.42,-9.71 -0.45,-2.659 -1.42,-4.03 -3.02,-4.899 -1.061,-0.57 -2.551,-0.92 -4.521,-0.91 -1.069,0 -2.28,0.1 -3.61,0.31 l -1.979,0.31 -1.28,-8.07 1.98,-0.32 c 6.82,-1.24 8.949,-3.41 9.029,-7.16 0,-0.48 -0.039,-1 -0.13,-1.56 -0.37,-2.33 -0.56,-4.29 -0.56,-5.93 0.01,-1.7 0.16,-3.06 0.81,-4.31 1.82,-3.09 5.55,-4.39 10.99,-5.31 l 5.83,-0.93 1.17,7.41 -4.59,0.73 c -1.681,0.27 -2.99,0.57 -3.89,0.88 -0.851,0.29 -1.33,0.62 -1.541,0.87 -0.22,0.26 -0.34,0.51 -0.399,1.02 -0.011,0.17 -0.021,0.36 -0.021,0.56 0,0.59 0.07,1.34 0.211,2.22 0.319,2.03 0.479,3.78 0.489,5.29 -0.01,1.36 -0.13,2.53 -0.5,3.59 -0.64,1.78 -1.829,3.3 -3.51,4.65 2.271,0.89 4.069,2.2 5.271,4.03 l 0.01,0.01 v 0.01 c 1.1,1.83 1.72,4.62 2.459,9.09 0.141,0.92 0.341,1.601 0.531,1.99 0.14,0.29 0.219,0.36 0.39,0.46 0.19,0.1 0.64,0.23 1.37,0.24 h 0.119 c 0.75,0 1.811,-0.09 3.121,-0.3 l 3.959,-0.63 1.971,-0.311 z"
             inkscape:connector-curvature="0"
             style="fill:#f7f7ff" /><path
             id="right_x5F_brace_9_"
             d="m 234.84,182.667 -1.279,8.08 -1.971,-0.32 c -1.34,-0.21 -2.56,-0.31 -3.63,-0.31 -1.97,0 -3.45,0.34 -4.51,0.9 -1.59,0.86 -2.561,2.23 -3.021,4.91 -0.819,4.729 -1.55,7.74 -3.46,9.67 -0.01,0.01 -0.01,0.01 -0.02,0.02 -1.71,1.561 -4.04,2.04 -6.87,2.061 -1.53,0 -3.23,-0.16 -5.14,-0.46 l -5.83,-0.92 1.17,-7.36 4.66,0.74 c 1.489,0.24 2.71,0.34 3.6,0.34 h 0.21 c 0.87,-0.01 1.44,-0.18 1.75,-0.35 0.29,-0.17 0.5,-0.37 0.74,-0.87 0.26,-0.58 0.53,-1.49 0.72,-2.69 0.64,-3.89 1.36,-6.56 2.74,-8.44 1.149,-1.49 2.76,-2.56 4.78,-3.32 -1.9,-1.55 -3.2,-3.35 -3.771,-5.47 l -0.01,-0.01 v -0.02 c -0.15,-0.64 -0.2,-1.29 -0.2,-2.04 0,-0.54 0.03,-1.12 0.08,-1.76 0.13,-1.49 0.36,-3.34 0.69,-5.58 v -0.02 c 0.1,-0.58 0.14,-1.08 0.14,-1.47 0,-0.2 -0.01,-0.38 -0.03,-0.52 -0.05,-0.31 -0.109,-0.43 -0.26,-0.6 -0.14,-0.15 -0.521,-0.42 -1.22,-0.65 -0.74,-0.25 -1.84,-0.5 -3.25,-0.73 l -5.931,-0.94 1.181,-7.4 5.83,0.92 c 5.369,0.91 9.09,2.22 10.92,5.29 0.68,1.29 0.84,2.71 0.859,4.48 0,1.64 -0.189,3.57 -0.55,5.85 -0.09,0.58 -0.14,1.1 -0.14,1.59 0.02,1.78 0.5,2.96 1.49,4.01 1.27,1.33 3.75,2.49 7.55,3.08 z"
             inkscape:connector-curvature="0"
             style="fill:#f7f7ff" /></g></g></g></g></svg>