<svg xmlns="http://www.w3.org/2000/svg" viewBox="0 0 184 40"><defs><style>.cls-1{fill:#5d5d5d;}.cls-2{fill:#fff;}.cls-2,.cls-3,.cls-4,.cls-5,.cls-6{fill-rule:evenodd;}.cls-3{fill:#3e82f1;}.cls-4{fill:#32a753;}.cls-5{fill:#f9bb00;}.cls-6{fill:#e74133;}.cls-7{fill:#929292;}</style></defs><title>sign_in_light</title><g id="Layer_2" data-name="Layer 2"><g id="sign_in" data-name="sign in"><path class="cls-1" d="M182,1a1,1,0,0,1,1,1V38a1,1,0,0,1-1,1H2a1,1,0,0,1-1-1V2A1,1,0,0,1,2,1H182m0-1H2A2,2,0,0,0,0,2V38a2,2,0,0,0,2,2H182a2,2,0,0,0,2-2V2a2,2,0,0,0-2-2Z"/><path class="cls-2" d="M2,1A1,1,0,0,0,1,2V38a1,1,0,0,0,1,1H38a1,1,0,0,0,1-1V2a1,1,0,0,0-1-1Z"/><path class="cls-3" d="M28.64,20.2a11,11,0,0,0-.16-1.84H20v3.48h4.84a4.11,4.11,0,0,1-1.79,2.72v2.26H26a8.78,8.78,0,0,0,2.68-6.62Z"/><path class="cls-4" d="M20,29a8.62,8.62,0,0,0,6-2.18l-2.91-2.26a5.43,5.43,0,0,1-3.05.86,5.37,5.37,0,0,1-5-3.71H12V24a9,9,0,0,0,8,5Z"/><path class="cls-5" d="M15,21.71a5.36,5.36,0,0,1,0-3.42V16H12A9,9,0,0,0,12,24l3-2.33Z"/><path class="cls-6" d="M20,14.58a4.83,4.83,0,0,1,3.44,1.35L26,13.34A8.65,8.65,0,0,0,20,11a9,9,0,0,0-8,5l3,2.33a5.37,5.37,0,0,1,5-3.71Z"/><g id="text_outline" data-name="text outline"><path class="cls-7" d="M57.48,21.53a1.18,1.18,0,0,0-.46-1,5.41,5.41,0,0,0-1.67-.72A7.75,7.75,0,0,1,53.44,19a2.55,2.55,0,0,1-1.36-2.23,2.43,2.43,0,0,1,1-2A4,4,0,0,1,55.61,14a4.37,4.37,0,0,1,1.85.38,3.11,3.11,0,0,1,1.28,1.09A2.82,2.82,0,0,1,59.2,17H57.48A1.55,1.55,0,0,0,57,15.82a2,2,0,0,0-1.4-.44,2.1,2.1,0,0,0-1.31.36,1.2,1.2,0,0,0-.47,1,1.1,1.1,0,0,0,.5.91,6.06,6.06,0,0,0,1.67.71,7.39,7.39,0,0,1,1.87.79,2.93,2.93,0,0,1,1,1,2.6,2.6,0,0,1,.33,1.33,2.36,2.36,0,0,1-1,2,4.1,4.1,0,0,1-2.58.74,5,5,0,0,1-2-.4,3.43,3.43,0,0,1-1.41-1.11,2.77,2.77,0,0,1-.5-1.64H53.5a1.63,1.63,0,0,0,.56,1.32,2.45,2.45,0,0,0,1.61.46A2.13,2.13,0,0,0,57,22.5,1.18,1.18,0,0,0,57.48,21.53Z"/><path class="cls-7" d="M60.57,14.77a.88.88,0,0,1,.24-.63.92.92,0,0,1,.7-.25.9.9,0,0,1,.69.25.92.92,0,0,1,0,1.26.9.9,0,0,1-.69.25.92.92,0,0,1-.7-.25A.88.88,0,0,1,60.57,14.77Zm1.76,9.32H60.67v-7.4h1.66Z"/><path class="cls-7" d="M63.85,20.34a4.31,4.31,0,0,1,.81-2.75,2.59,2.59,0,0,1,2.15-1,2.43,2.43,0,0,1,2,.88l.08-.75h1.49v7.18a3,3,0,0,1-.9,2.29A3.47,3.47,0,0,1,67,27a4,4,0,0,1-1.59-.33,3,3,0,0,1-1.18-.89l.79-1a2.37,2.37,0,0,0,1.89.91,1.82,1.82,0,0,0,1.3-.45,1.68,1.68,0,0,0,.48-1.31v-.5a2.46,2.46,0,0,1-1.91.8,2.62,2.62,0,0,1-2.13-1A4.55,4.55,0,0,1,63.85,20.34Zm1.65.14A3,3,0,0,0,66,22.24a1.47,1.47,0,0,0,1.26.64A1.59,1.59,0,0,0,68.71,22V18.76a1.58,1.58,0,0,0-1.48-.84,1.45,1.45,0,0,0-1.27.65A3.34,3.34,0,0,0,65.5,20.48Z"/><path class="cls-7" d="M73.62,16.69l0,.86a2.64,2.64,0,0,1,2.15-1c1.54,0,2.32.88,2.35,2.64v4.89H76.51V19.3a1.52,1.52,0,0,0-.3-1,1.29,1.29,0,0,0-1-.34,1.6,1.6,0,0,0-1.5.91v5.26H72.05v-7.4Z"/><path class="cls-7" d="M83.35,14.77a.85.85,0,0,1,.25-.63.9.9,0,0,1,.69-.25.94.94,0,0,1,.7.25.95.95,0,0,1,0,1.26.94.94,0,0,1-.7.25.9.9,0,0,1-.69-.25A.85.85,0,0,1,83.35,14.77Zm1.77,9.32H83.46v-7.4h1.66Z"/><path class="cls-7" d="M88.47,16.69l0,.86a2.68,2.68,0,0,1,2.16-1c1.54,0,2.32.88,2.35,2.64v4.89H91.36V19.3a1.47,1.47,0,0,0-.31-1,1.25,1.25,0,0,0-1-.34,1.6,1.6,0,0,0-1.5.91v5.26H86.9v-7.4Z"/><path class="cls-7" d="M104.69,21.8l1.18-5.11h1.62l-2,7.4h-1.36L102.52,19,101,24.09H99.59l-2-7.4h1.62l1.2,5.06,1.52-5.06h1.25Z"/><path class="cls-7" d="M108.6,14.77a.86.86,0,0,1,.94-.88.94.94,0,0,1,.7.25.95.95,0,0,1,0,1.26.94.94,0,0,1-.7.25.86.86,0,0,1-.94-.88Zm1.77,9.32h-1.66v-7.4h1.66Z"/><path class="cls-7" d="M114.26,14.9v1.79h1.3v1.24h-1.3v4.12a.88.88,0,0,0,.17.62.79.79,0,0,0,.59.18,3,3,0,0,0,.59-.06v1.28a4,4,0,0,1-1.1.16c-1.27,0-1.91-.71-1.91-2.11V17.93h-1.22V16.69h1.22V14.9Z"/><path class="cls-7" d="M118.47,17.5a2.59,2.59,0,0,1,2.06-.94q2.35,0,2.4,2.7v4.83h-1.67V19.32a1.45,1.45,0,0,0-.33-1.08,1.31,1.31,0,0,0-1-.32,1.59,1.59,0,0,0-1.49.89v5.28h-1.66V13.59h1.66Z"/><path class="cls-7" d="M135.88,22.8a3.37,3.37,0,0,1-1.5,1.07,6.09,6.09,0,0,1-2.17.36,4.25,4.25,0,0,1-2.21-.57A3.77,3.77,0,0,1,128.51,22a5.79,5.79,0,0,1-.55-2.47v-.78A5.31,5.31,0,0,1,129,15.27a3.74,3.74,0,0,1,3-1.27,4,4,0,0,1,2.64.83,3.5,3.5,0,0,1,1.17,2.36h-1.69a1.91,1.91,0,0,0-2.09-1.79,2,2,0,0,0-1.76.83,4.2,4.2,0,0,0-.63,2.46v.76a4.09,4.09,0,0,0,.68,2.51,2.24,2.24,0,0,0,1.89.89,2.5,2.5,0,0,0,1.89-.6V20.3h-2V19h3.77Z"/><path class="cls-7" d="M137.31,20.32a4.3,4.3,0,0,1,.43-1.95A3.15,3.15,0,0,1,139,17a3.35,3.35,0,0,1,1.79-.47,3.23,3.23,0,0,1,2.43,1,3.81,3.81,0,0,1,1,2.56v.39a4.37,4.37,0,0,1-.42,2,3.15,3.15,0,0,1-1.21,1.34,3.46,3.46,0,0,1-1.81.47,3.22,3.22,0,0,1-2.5-1,4,4,0,0,1-.94-2.78Zm1.66.15a3,3,0,0,0,.47,1.79,1.53,1.53,0,0,0,1.31.64,1.52,1.52,0,0,0,1.31-.65,3.26,3.26,0,0,0,.47-1.93,2.93,2.93,0,0,0-.48-1.77,1.62,1.62,0,0,0-2.6,0A3.21,3.21,0,0,0,139,20.47Z"/><path class="cls-7" d="M145.28,20.32a4.3,4.3,0,0,1,.43-1.95A3.15,3.15,0,0,1,146.92,17a3.35,3.35,0,0,1,1.79-.47,3.23,3.23,0,0,1,2.43,1,3.81,3.81,0,0,1,1,2.56v.39a4.37,4.37,0,0,1-.42,2,3.09,3.09,0,0,1-1.21,1.34,3.45,3.45,0,0,1-1.8.47,3.23,3.23,0,0,1-2.51-1,4,4,0,0,1-.94-2.78Zm1.66.15a3,3,0,0,0,.47,1.79,1.66,1.66,0,0,0,2.63,0,3.33,3.33,0,0,0,.46-1.93,2.93,2.93,0,0,0-.48-1.77,1.62,1.62,0,0,0-2.6,0A3.21,3.21,0,0,0,146.94,20.47Z"/><path class="cls-7" d="M153.27,20.34a4.31,4.31,0,0,1,.81-2.75,2.59,2.59,0,0,1,2.15-1,2.43,2.43,0,0,1,2,.88l.08-.75h1.49v7.18a3,3,0,0,1-.9,2.29,3.47,3.47,0,0,1-2.45.84,4,4,0,0,1-1.59-.33,3,3,0,0,1-1.18-.89l.79-1a2.37,2.37,0,0,0,1.89.91,1.82,1.82,0,0,0,1.3-.45,1.68,1.68,0,0,0,.48-1.31v-.5a2.45,2.45,0,0,1-1.91.8,2.59,2.59,0,0,1-2.12-1A4.49,4.49,0,0,1,153.27,20.34Zm1.66.14a3,3,0,0,0,.45,1.76,1.47,1.47,0,0,0,1.26.64,1.59,1.59,0,0,0,1.49-.87V18.76a1.56,1.56,0,0,0-1.47-.84,1.45,1.45,0,0,0-1.28.65A3.35,3.35,0,0,0,154.93,20.48Z"/><path class="cls-7" d="M163.26,24.09H161.6V13.59h1.66Z"/><path class="cls-7" d="M168.33,24.23a3.41,3.41,0,0,1-2.56-1,3.61,3.61,0,0,1-1-2.65v-.2a4.37,4.37,0,0,1,.43-2,3.24,3.24,0,0,1,1.2-1.36,3.19,3.19,0,0,1,1.72-.48,2.9,2.9,0,0,1,2.33,1,4.07,4.07,0,0,1,.83,2.73v.67h-4.84a2.23,2.23,0,0,0,.62,1.45,1.83,1.83,0,0,0,1.35.53,2.27,2.27,0,0,0,1.86-.92l.89.85a2.88,2.88,0,0,1-1.18,1A3.66,3.66,0,0,1,168.33,24.23Zm-.2-6.34a1.4,1.4,0,0,0-1.1.48,2.5,2.5,0,0,0-.54,1.33h3.17v-.12a2,2,0,0,0-.45-1.26A1.37,1.37,0,0,0,168.13,17.89Z"/></g></g></g></svg>